<?xml version="1.0" encoding="UTF-8" standalone="no"?>
<svg
   xmlns:dc="http://purl.org/dc/elements/1.1/"
   xmlns:cc="http://creativecommons.org/ns#"
   xmlns:rdf="http://www.w3.org/1999/02/22-rdf-syntax-ns#"
   xmlns:svg="http://www.w3.org/2000/svg"
   xmlns="http://www.w3.org/2000/svg"
   xmlns:sodipodi="http://sodipodi.sourceforge.net/DTD/sodipodi-0.dtd"
   xmlns:inkscape="http://www.inkscape.org/namespaces/inkscape"
   version="1.1"
   id="svg10"
   width="307.50708"
   height="331.466"
   viewBox="0 0 307.50708 331.466"
   sodipodi:docname="calendar_white.svg"
   inkscape:version="1.0.1 (3bc2e813f5, 2020-09-07)">
  <metadata
     id="metadata16">
    <rdf:RDF>
      <cc:Work
         rdf:about="">
        <dc:format>image/svg+xml</dc:format>
        <dc:type
           rdf:resource="http://purl.org/dc/dcmitype/StillImage" />
        <dc:title />
      </cc:Work>
    </rdf:RDF>
  </metadata>
  <defs
     id="defs14" />
  <sodipodi:namedview
     pagecolor="#ffffff"
     bordercolor="#666666"
     borderopacity="1"
     objecttolerance="10"
     gridtolerance="10"
     guidetolerance="10"
     inkscape:pageopacity="0"
     inkscape:pageshadow="2"
     inkscape:window-width="1680"
     inkscape:window-height="987"
     id="namedview12"
     showgrid="false"
     fit-margin-top="0"
     fit-margin-left="0"
     fit-margin-right="0"
     fit-margin-bottom="0"
     inkscape:zoom="2.112069"
     inkscape:cx="212.5119"
     inkscape:cy="164.6678"
     inkscape:window-x="-8"
     inkscape:window-y="-8"
     inkscape:window-maximized="1"
     inkscape:current-layer="g18"
     inkscape:document-rotation="0" />
  <g
     inkscape:groupmode="layer"
     inkscape:label="Image"
     id="g18"
     transform="translate(-21.727601,-9.3321987)">
    <path
       style="fill:#f9f9f9;fill-opacity:1"
       d="m 21.981151,203.54501 0.25354,-137.253174 32.12088,-0.263683 32.12087,-0.263682 2.60194,3.411314 c 7.52387,9.864304 22.583599,9.955501 30.038289,0.181901 l 2.7198,-3.56585 h 52.43992 52.43991 l 2.2592,3.520992 c 1.38819,2.16352 4.28977,4.525169 7.52607,6.125608 9.06099,4.48091 18.49857,2.017476 24.21132,-6.319732 l 2.29784,-3.353486 33.11198,0.263309 33.11198,0.263309 v 137.000004 137 l -153.75355,0.25317 -153.753539,0.25318 z M 313.23469,203.29184 V 82.291836 h -137.5 -137.499999 l -0.25732,120.000004 c -0.14153,66 -0.0425,120.5641 0.21997,121.25355 0.38001,0.99803 28.45989,1.20186 137.757329,1 l 137.28002,-0.25355 z m -237.499999,72 v -19.5 h 21 20.999999 v 19.5 19.5 h -20.999999 -21 z m 75.999999,0 v -19.5 h 21 21 v 19.5 19.5 h -21 -21 z m -79.999999,-67.5 v -20.04058 l 20.75,0.27029 20.749999,0.27029 v 19.5 19.5 l -20.749999,0.27029 -20.75,0.27029 z m 76.228859,0.25 0.27114,-19.75 20.75,-0.27029 20.75,-0.27029 v 20.02029 20.02029 h -21.02114 -21.02114 z m 78.77114,-0.27029 v -20.02029 l 20.75,0.27029 20.75,0.27029 0.27114,19.75 0.27114,19.75 H 247.75583 226.73469 Z M 69.734691,142.79184 v -20.04058 l 20.75,0.27029 20.749999,0.27029 v 19.5 19.5 l -20.749999,0.27029 -20.75,0.27029 z m 75.999999,0 v -20 h 21 21 v 20 20 h -21 -21 z m 79,0 v -20.04058 l 20.75,0.27029 20.75,0.27029 v 19.5 19.5 l -20.75,0.27029 -20.75,0.27029 z m 15.26969,-72.482591 c -1.77666,-0.772367 -4.13748,-2.892253 -5.24626,-4.710858 -1.85276,-3.038887 -2.01626,-5.014783 -2.01969,-24.408672 -0.004,-20.255755 0.087,-21.238399 2.25946,-24.499999 1.24475,-1.868836 3.97844,-4.238537 6.07485,-5.266003 3.67255,-1.7999433 3.95553,-1.8032433 7.75386,-0.09043 7.40022,3.337034 7.90861,5.239315 7.90435,29.576586 -0.003,19.442939 -0.18076,21.67229 -1.95578,24.583417 -2.04301,3.350663 -6.67339,6.326122 -9.74082,6.259407 -0.98981,-0.02153 -3.2533,-0.671078 -5.02997,-1.443445 z M 99.734691,68.603298 c -6.57462,-4.416882 -7.09208,-6.698884 -6.77837,-29.892297 l 0.27837,-20.580834 2.73896,-3.58797 c 3.83843,-5.0282433 8.625309,-6.4800133 13.452459,-4.079876 7.4105,3.684625 7.77049,4.92867 8.1171,28.05132 0.3322,22.160416 0.001,24.170087 -4.72508,28.698254 -3.98354,3.816472 -8.72335,4.320543 -13.083439,1.391403 z"
       id="path22" />
  </g>
</svg>
