<?xml version="1.0" encoding="UTF-8" standalone="no"?>
<svg
   xmlns:dc="http://purl.org/dc/elements/1.1/"
   xmlns:cc="http://creativecommons.org/ns#"
   xmlns:rdf="http://www.w3.org/1999/02/22-rdf-syntax-ns#"
   xmlns:svg="http://www.w3.org/2000/svg"
   xmlns="http://www.w3.org/2000/svg"
   xmlns:sodipodi="http://sodipodi.sourceforge.net/DTD/sodipodi-0.dtd"
   xmlns:inkscape="http://www.inkscape.org/namespaces/inkscape"
   enable-background="new 0 0 24 24"
   height="24px"
   id="Layer_1"
   version="1.1"
   viewBox="0 0 24 24"
   width="24px"
   xml:space="preserve"
   sodipodi:docname="checkYesDisabled_icon.svg"
   inkscape:version="1.0.1 (3bc2e813f5, 2020-09-07)"><metadata
     id="metadata849"><rdf:RDF><cc:Work
         rdf:about=""><dc:format>image/svg+xml</dc:format><dc:type
           rdf:resource="http://purl.org/dc/dcmitype/StillImage" /><dc:title /></cc:Work></rdf:RDF></metadata><defs
     id="defs847" /><sodipodi:namedview
     pagecolor="#ffffff"
     bordercolor="#666666"
     borderopacity="1"
     objecttolerance="10"
     gridtolerance="10"
     guidetolerance="10"
     inkscape:pageopacity="0"
     inkscape:pageshadow="2"
     inkscape:window-width="1680"
     inkscape:window-height="987"
     id="namedview845"
     showgrid="false"
     inkscape:zoom="30.625"
     inkscape:cx="12"
     inkscape:cy="8.0816327"
     inkscape:window-x="-8"
     inkscape:window-y="-8"
     inkscape:window-maximized="1"
     inkscape:current-layer="Layer_1"
     inkscape:document-rotation="0" /><path
     clip-rule="evenodd"
     d="m 21.782612,3.5048776 c -0.293,-0.295 -0.77,-0.295 -1.061,0 L 9.5406122,14.633878 c -0.293,0.297 -0.771,0.297 -1.062,0 l -4.899,-4.9890004 c -0.145,-0.148 -0.335,-0.221 -0.526,-0.222 -0.193,-10e-4 -0.389,0.072 -0.536,0.222 L 0.35261224,11.590878 c -0.144,0.148 -0.222,0.333 -0.222,0.526 0,0.194 0.078,0.397 0.223,0.544 l 4.93999996,5.184 c 0.292,0.296 0.771,0.776 1.062,1.07 l 2.124,2.141 c 0.292,0.293 0.769,0.293 1.062,0 L 23.907612,6.7158776 c 0.293,-0.294 0.293,-0.777 0,-1.071 z"
     fill-rule="evenodd"
     id="path842"
     style="fill:#b4b4b4;fill-opacity:1" /></svg>
